<svg width="156" height="51" viewBox="0 0 156 51" fill="none" xmlns="http://www.w3.org/2000/svg">
<path d="M62.0347 37.3064H57.3748V16.0204H62.0347V24.4197H70.2615V16.0204H74.9214V37.3064H70.2615V28.7345H62.0347V37.3064ZM84.0305 37.6803C79.687 37.6803 76.5803 34.5162 76.5803 30.0864C76.5803 25.5991 79.6007 22.4637 83.9442 22.4637C88.4603 22.4637 91.2792 25.4265 91.2792 30.1152V31.237L80.8376 31.2945C81.0964 33.193 82.1607 34.0847 84.1168 34.0847C85.7851 34.0847 86.9645 33.4807 87.2809 32.4451H91.3367C90.819 35.638 87.9712 37.6803 84.0305 37.6803ZM83.9729 26.0593C82.2183 26.0593 81.2403 26.836 80.8951 28.5619H86.8782C86.8782 27.0373 85.7564 26.0593 83.9729 26.0593ZM102.359 22.9239V27.0949H100.95C98.4185 27.0949 96.894 28.2167 96.894 31.0644V37.3064H92.4642V22.9527H96.6351L96.8652 25.0813C97.4693 23.6718 98.7349 22.7226 100.662 22.7226C101.18 22.7226 101.755 22.7801 102.359 22.9239ZM107.591 37.3064H103.161V22.9239H107.303L107.591 24.4197C108.31 23.4129 109.72 22.4637 111.791 22.4637C113.948 22.4637 115.329 23.4705 116.163 24.995C116.911 23.4705 118.608 22.4637 120.679 22.4637C124.39 22.4637 126.231 24.6211 126.231 27.9003V37.3064H121.801V29.1372C121.801 27.325 120.852 26.462 119.442 26.462C118.176 26.462 116.911 27.1524 116.911 29.5974V37.3064H112.481V29.1372C112.481 27.3537 111.56 26.4908 110.151 26.4908C108.885 26.4908 107.591 27.1811 107.591 29.5974V37.3064ZM134.633 37.6803C130.29 37.6803 127.183 34.5162 127.183 30.0864C127.183 25.5991 130.203 22.4637 134.547 22.4637C139.063 22.4637 141.882 25.4265 141.882 30.1152V31.237L131.44 31.2945C131.699 33.193 132.763 34.0847 134.719 34.0847C136.388 34.0847 137.567 33.4807 137.884 32.4451H141.939C141.422 35.638 138.574 37.6803 134.633 37.6803ZM134.576 26.0593C132.821 26.0593 131.843 26.836 131.498 28.5619H137.481C137.481 27.0373 136.359 26.0593 134.576 26.0593ZM142.031 32.7615H146.231C146.289 33.7683 147.036 34.3724 148.388 34.3724C149.769 34.3724 150.402 33.8834 150.402 33.1355C150.402 32.704 150.172 32.2438 149.107 32.0137L146.461 31.4384C143.815 30.8631 142.52 29.7125 142.52 27.1811C142.52 24.1896 145.08 22.4637 148.532 22.4637C151.869 22.4637 154.199 24.4197 154.199 27.325H149.999C149.999 26.347 149.395 25.6854 148.331 25.6854C147.324 25.6854 146.691 26.2031 146.691 26.9798C146.691 27.6414 147.238 28.0153 148.245 28.2454L150.92 28.8207C153.278 29.3385 154.573 30.4316 154.573 32.7328C154.573 35.8106 151.955 37.6803 148.216 37.6803C144.419 37.6803 142.031 35.6668 142.031 32.7615Z" fill="url(#paint0_linear_1_210)"/>
<g clip-path="url(#clip0_1_210)">
<path fill-rule="evenodd" clip-rule="evenodd" d="M13.7822 11.432C15.3476 9.86661 17.4707 8.98718 19.6845 8.98718H40.5524C42.7662 8.98718 44.8893 9.86661 46.4547 11.432C48.0201 12.9974 48.8996 15.1205 48.8996 17.3343V29.8551C48.8996 32.0689 48.0201 34.192 46.4547 35.7574C44.8893 37.3228 42.7662 38.2022 40.5524 38.2022H17.4019L14.8997 41.1847C14.3029 41.7816 13.4053 41.9601 12.6256 41.6371C11.8458 41.3141 11.3374 40.5532 11.3374 39.7092V17.3343C11.3374 15.1205 12.2168 12.9974 13.7822 11.432Z" fill="url(#paint1_linear_1_210)"/>
<path fill-rule="evenodd" clip-rule="evenodd" d="M15.4657 23.5942C12.9457 23.5395 10.3057 24.8049 8.88079 26.8676C8.22574 27.8158 6.92601 28.0535 5.97776 27.3984C5.02952 26.7434 4.79185 25.4436 5.4469 24.4954C7.71499 21.2122 11.7009 19.3533 15.511 19.4207C19.3211 19.3533 23.307 21.2122 25.5751 24.4954C27 26.558 29.64 27.8235 32.16 27.7688C32.1902 27.7681 32.2204 27.7681 32.2506 27.7688C34.5345 27.8184 37.0904 26.1923 39.0769 24.2059L39.6881 23.5947H36.3789C35.2264 23.5947 34.2921 22.6604 34.2921 21.5079C34.2921 20.3554 35.2264 19.4211 36.3789 19.4211H44.7261C45.8786 19.4211 46.8128 20.3554 46.8128 21.5079V29.8551C46.8128 31.0076 45.8786 31.9419 44.7261 31.9419C43.5735 31.9419 42.6393 31.0076 42.6393 29.8551V26.5459L42.0281 27.1571C39.8492 29.3359 36.2473 32.0092 32.206 31.9422C28.3957 32.0099 24.4094 30.151 22.1412 26.8676C20.7163 24.8049 18.0763 23.5395 15.5563 23.5942C15.5261 23.5949 15.4959 23.5949 15.4657 23.5942Z" fill="url(#paint2_linear_1_210)"/>
</g>
<defs>
<linearGradient id="paint0_linear_1_210" x1="55.1599" y1="25.6815" x2="223.583" y2="25.6815" gradientUnits="userSpaceOnUse">
<stop stop-color="#DCDCDC"/>
<stop offset="0.74" stop-color="white"/>
</linearGradient>
<linearGradient id="paint1_linear_1_210" x1="16.9738" y1="4.6059" x2="44.3335" y2="1.13632" gradientUnits="userSpaceOnUse">
<stop stop-color="#CA1EA6"/>
<stop offset="1" stop-color="#762C9B"/>
</linearGradient>
<linearGradient id="paint2_linear_1_210" x1="5.07687" y1="25.6815" x2="46.8128" y2="25.6815" gradientUnits="userSpaceOnUse">
<stop stop-color="#DCDCDC"/>
<stop offset="0.74" stop-color="white"/>
</linearGradient>
<clipPath id="clip0_1_210">
<rect width="54.2565" height="50.0829" fill="white" transform="translate(0.903412 0.640015)"/>
</clipPath>
</defs>
</svg>
